<svg width="141" height="31" viewBox="0 0 141 31" fill="none" xmlns="http://www.w3.org/2000/svg">
<path d="M6.44489 1.70981C11.762 1.70981 14.4206 3.78059 14.4206 7.92214C14.4206 10.0684 13.6818 11.724 12.2042 12.8888C10.7374 14.0536 8.6397 14.636 5.91102 14.636H3.40344V23H0.92821V1.70981H6.44489ZM3.40344 3.86147V12.5005H5.636C7.81463 12.5005 9.40007 12.15 10.3923 11.4489C11.3738 10.7371 11.8645 9.63701 11.8645 8.14863C11.8645 6.64948 11.4007 5.56016 10.4732 4.88069C9.54567 4.20121 8.11122 3.86147 6.16987 3.86147H3.40344ZM31.8717 23H29.445V12.6785C29.445 11.3627 29.1484 10.392 28.5552 9.76643C27.962 9.1301 27.0399 8.81193 25.7888 8.81193C24.0955 8.81193 22.866 9.27031 22.1002 10.1871C21.3344 11.1038 20.9516 12.5922 20.9516 14.6522V23H18.5249V0.350859H20.9516V7.21031C20.9516 8.07314 20.9138 8.75261 20.8383 9.24874H20.9839C21.4693 8.47219 22.1487 7.86822 23.0223 7.4368C23.9067 6.99461 24.9044 6.77351 26.0153 6.77351C27.989 6.77351 29.4558 7.24267 30.4157 8.18099C31.3863 9.11931 31.8717 10.5915 31.8717 12.5976V23ZM36.6918 30.1668C35.9692 30.1668 35.2411 30.0859 34.5077 29.9242V27.9828C35.0686 28.1014 35.6672 28.1608 36.3035 28.1608C37.9644 28.1608 39.1508 27.2278 39.8626 25.362L40.7524 23.0809L34.3136 7.04853H36.9021L40.3965 16.1405C41.1838 18.2976 41.6584 19.7968 41.8202 20.638H41.9334C42.0736 20.088 42.3271 19.2629 42.6938 18.1628C43.0713 17.0627 44.4033 13.3579 46.6897 7.04853H49.2782L42.4188 25.2164C41.7501 26.996 40.9627 28.2632 40.0568 29.0182C39.1508 29.784 38.0291 30.1668 36.6918 30.1668ZM54.4733 18.3084C54.4733 19.2683 54.6944 20.0071 55.1366 20.5248C55.5895 21.0425 56.2043 21.3013 56.9809 21.3013C57.7682 21.3013 58.5124 21.2042 59.2134 21.0101V22.8544C58.9653 22.973 58.5717 23.0755 58.0324 23.1618C57.5039 23.2481 57.051 23.2912 56.6735 23.2912C53.5889 23.2912 52.0466 21.668 52.0466 18.4216V8.92518H49.7655V7.76036L52.0466 6.75733L53.0658 3.34378H54.4733V7.04853H59.1002V8.92518H54.4733V18.3084ZM63.4676 8.92518C64.7834 7.47995 66.5738 6.75733 68.8387 6.75733C71.1036 6.75733 72.894 7.50152 74.2098 8.98989C75.5256 10.4675 76.1835 12.4897 76.1835 15.0566C76.1835 17.6127 75.5256 19.6296 74.2098 21.1072C72.894 22.5632 71.0874 23.2912 68.7902 23.2912C66.6223 23.3128 64.8589 22.5632 63.5 21.0425C62.141 19.5217 61.4777 17.5103 61.5101 15.0081C61.5101 12.398 62.1626 10.3704 63.4676 8.92518ZM68.8063 8.81193C65.6139 8.81193 64.0177 10.8773 64.0177 15.0081C64.0177 17.0465 64.4221 18.5996 65.231 19.6673C66.0507 20.7351 67.2533 21.269 68.8387 21.269C70.4241 21.269 71.6267 20.7405 72.4464 19.6835C73.2661 18.6158 73.6759 17.0627 73.6759 15.0243C73.6759 12.9751 73.2661 11.4274 72.4464 10.3812C71.6267 9.33502 70.4133 8.81193 68.8063 8.81193Z" fill="black"/>
<path d="M92.776 17.3377C92.776 19.2144 92.0965 20.6758 90.7376 21.7219C89.3894 22.7681 87.4966 23.2912 85.0591 23.2912C82.6324 23.2912 80.7396 22.9676 79.3807 22.3205V19.9262C81.3004 20.7243 83.2742 21.1234 85.3018 21.1234C86.9304 21.1234 88.1653 20.816 89.0065 20.2012C89.8586 19.5865 90.2846 18.7074 90.2846 17.5642C90.2846 16.8308 90.1336 16.2322 89.8316 15.7685C89.5404 15.3047 89.0443 14.8679 88.3432 14.458C87.6422 14.0482 86.5906 13.5952 85.1885 13.0991C83.2148 12.398 81.7966 11.5622 80.9337 10.5915C80.0817 9.62083 79.6557 8.33198 79.6557 6.72497C79.6557 5.11796 80.2704 3.82912 81.5 2.85844C82.7511 1.88776 84.4066 1.40243 86.4666 1.40243C88.5374 1.40243 90.4626 1.7907 92.2421 2.56724L91.4656 4.73509C89.7076 3.9909 88.0035 3.61881 86.3534 3.61881C85.0375 3.61881 84.0076 3.90462 83.2634 4.47624C82.53 5.03707 82.1633 5.81362 82.1633 6.80586C82.1633 7.56084 82.2927 8.16481 82.5515 8.61779C82.8212 9.07078 83.2849 9.50758 83.9428 9.92821C84.6223 10.3381 85.6146 10.7695 86.9196 11.2224C89.1629 12.0206 90.6944 12.878 91.5141 13.7947C92.3554 14.7007 92.776 15.8817 92.776 17.3377ZM103.165 23.2912C100.846 23.2912 99.0506 22.5794 97.7779 21.1557C96.516 19.7321 95.8851 17.7098 95.8851 15.089C95.8851 12.4574 96.5268 10.4082 97.8103 8.94135C99.1045 7.48534 100.938 6.75733 103.311 6.75733C104.087 6.75733 104.858 6.83822 105.624 7C106.39 7.16178 106.989 7.35591 107.42 7.58241L106.676 9.63701C105.479 9.14088 104.341 8.89282 103.262 8.89282C100.016 8.89282 98.3927 10.9582 98.3927 15.089C98.3927 17.0627 98.7917 18.5726 99.5898 19.6188C100.388 20.665 101.558 21.1881 103.1 21.1881C104.416 21.1881 105.781 20.8969 107.193 20.3145V22.4661C106.126 23.0162 104.783 23.2912 103.165 23.2912ZM112.305 18.6158C112.305 19.4786 112.569 20.1419 113.098 20.6057C113.626 21.0694 114.365 21.3013 115.314 21.3013C116.835 21.3013 118.021 20.8915 118.873 20.0718C119.725 19.2413 120.151 18.0819 120.151 16.5935V15.1537L117.741 15.2508C115.821 15.3263 114.435 15.6282 113.583 16.1567C112.731 16.6852 112.305 17.5049 112.305 18.6158ZM122.578 23H120.782L120.297 20.7351H120.184C119.386 21.7273 118.593 22.4014 117.806 22.7573C117.018 23.1132 116.031 23.2912 114.845 23.2912C113.249 23.2912 112.003 22.8814 111.108 22.0617C110.224 21.242 109.781 20.0826 109.781 18.5834C109.781 15.3694 112.354 13.6815 117.498 13.5197L120.216 13.4388V12.452C120.216 11.1793 119.947 10.2518 119.407 9.66936C118.868 9.07617 117.967 8.77958 116.706 8.77958C115.454 8.77958 113.988 9.18402 112.305 9.99292L111.561 8.14863C113.243 7.23188 115.045 6.77351 116.964 6.77351C118.884 6.77351 120.297 7.19953 121.203 8.05157C122.12 8.90361 122.578 10.2572 122.578 12.1122V23ZM140.903 23H138.476V12.6785C138.476 11.3627 138.18 10.392 137.586 9.76643C136.993 9.1301 136.071 8.81193 134.82 8.81193C133.148 8.81193 131.924 9.26491 131.148 10.1709C130.371 11.0661 129.983 12.5544 129.983 14.636V23H127.556V7.04853H129.53L129.918 9.23256H130.031C130.527 8.45602 131.223 7.85204 132.118 7.42063C133.013 6.97843 134.011 6.75733 135.111 6.75733C137.053 6.75733 138.503 7.22649 139.463 8.16481C140.423 9.10313 140.903 10.5807 140.903 12.5976V23Z" fill="#08CC6D"/>
</svg>
